<mxfile host="app.diagrams.net" modified="2023-08-13T12:41:23.145Z" agent="Mozilla/5.0 (Windows NT 10.0; Win64; x64) AppleWebKit/537.36 (KHTML, like Gecko) Chrome/115.0.0.0 Safari/537.36" etag="YhQr2BgO1W1nT1JLVZO1" version="21.6.8" type="github">
  <diagram id="prtHgNgQTEPvFCAcTncT" name="Page-1">
    <mxGraphModel dx="1013" dy="638" grid="1" gridSize="10" guides="1" tooltips="1" connect="1" arrows="1" fold="1" page="1" pageScale="1" pageWidth="827" pageHeight="1169" math="0" shadow="0">
      <root>
        <mxCell id="0" />
        <mxCell id="1" parent="0" />
        <mxCell id="syg7E4NC2kROcxZFiv8_-9" value="" style="group" vertex="1" connectable="0" parent="1">
          <mxGeometry x="324" y="80" width="180" height="120" as="geometry" />
        </mxCell>
        <mxCell id="syg7E4NC2kROcxZFiv8_-8" value="光猫&lt;br style=&quot;border-color: var(--border-color); text-align: center;&quot;&gt;&lt;span style=&quot;text-align: center;&quot;&gt;192.168.1.1&lt;/span&gt;" style="verticalAlign=top;align=left;spacingTop=8;spacingLeft=2;spacingRight=12;shape=cube;size=10;direction=south;fontStyle=4;html=1;whiteSpace=wrap;" vertex="1" parent="syg7E4NC2kROcxZFiv8_-9">
          <mxGeometry width="180" height="120" as="geometry" />
        </mxCell>
        <mxCell id="syg7E4NC2kROcxZFiv8_-6" value="" style="image;html=1;image=img/lib/clip_art/networking/Wireless_Router_128x128.png" vertex="1" parent="syg7E4NC2kROcxZFiv8_-9">
          <mxGeometry x="80" y="30" width="80" height="80" as="geometry" />
        </mxCell>
        <mxCell id="syg7E4NC2kROcxZFiv8_-11" value="" style="group" vertex="1" connectable="0" parent="1">
          <mxGeometry x="140" y="240" width="560" height="290" as="geometry" />
        </mxCell>
        <mxCell id="syg7E4NC2kROcxZFiv8_-10" value="PVE" style="verticalAlign=top;align=left;spacingTop=8;spacingLeft=2;spacingRight=12;shape=cube;size=10;direction=south;fontStyle=4;html=1;whiteSpace=wrap;" vertex="1" parent="syg7E4NC2kROcxZFiv8_-11">
          <mxGeometry width="560" height="170" as="geometry" />
        </mxCell>
        <mxCell id="syg7E4NC2kROcxZFiv8_-2" value="PVE（后台）&lt;br&gt;192.168.2.250" style="rounded=1;whiteSpace=wrap;html=1;" vertex="1" parent="syg7E4NC2kROcxZFiv8_-11">
          <mxGeometry x="140" y="20" width="120" height="37.5" as="geometry" />
        </mxCell>
        <mxCell id="syg7E4NC2kROcxZFiv8_-3" value="OP&lt;br&gt;192.168.2.51&lt;br&gt;192.168.1.42" style="rounded=1;whiteSpace=wrap;html=1;" vertex="1" parent="syg7E4NC2kROcxZFiv8_-11">
          <mxGeometry x="140" y="66.25" width="120" height="37.5" as="geometry" />
        </mxCell>
        <mxCell id="syg7E4NC2kROcxZFiv8_-4" value="爱快&lt;br&gt;192.168.2.50&lt;br&gt;192.168.1.43" style="rounded=1;whiteSpace=wrap;html=1;" vertex="1" parent="syg7E4NC2kROcxZFiv8_-11">
          <mxGeometry x="140" y="110" width="120" height="37.5" as="geometry" />
        </mxCell>
        <mxCell id="syg7E4NC2kROcxZFiv8_-7" value="" style="image;html=1;image=img/lib/clip_art/networking/Router_128x128.png" vertex="1" parent="syg7E4NC2kROcxZFiv8_-11">
          <mxGeometry x="20" y="45.333333333333336" width="80" height="113.33333333333334" as="geometry" />
        </mxCell>
        <mxCell id="syg7E4NC2kROcxZFiv8_-23" value="网口1" style="rounded=0;whiteSpace=wrap;html=1;" vertex="1" parent="syg7E4NC2kROcxZFiv8_-11">
          <mxGeometry x="310" y="57.5" width="80" height="60" as="geometry" />
        </mxCell>
        <mxCell id="syg7E4NC2kROcxZFiv8_-24" value="网口2" style="rounded=0;whiteSpace=wrap;html=1;" vertex="1" parent="syg7E4NC2kROcxZFiv8_-11">
          <mxGeometry x="420" y="57.5" width="80" height="60" as="geometry" />
        </mxCell>
        <mxCell id="syg7E4NC2kROcxZFiv8_-27" value="" style="html=1;shadow=0;dashed=0;align=center;verticalAlign=middle;shape=mxgraph.arrows2.jumpInArrow;dy=15;dx=38;arrowHead=55;rotation=90;" vertex="1" parent="syg7E4NC2kROcxZFiv8_-11">
          <mxGeometry x="274" y="-50" width="100" height="100" as="geometry" />
        </mxCell>
        <mxCell id="syg7E4NC2kROcxZFiv8_-28" value="" style="html=1;shadow=0;dashed=0;align=center;verticalAlign=middle;shape=mxgraph.arrows2.jumpInArrow;dy=15;dx=38;arrowHead=55;rotation=-180;" vertex="1" parent="syg7E4NC2kROcxZFiv8_-11">
          <mxGeometry x="374" y="140" width="100" height="150" as="geometry" />
        </mxCell>
        <mxCell id="syg7E4NC2kROcxZFiv8_-14" value="" style="group" vertex="1" connectable="0" parent="1">
          <mxGeometry x="330" y="450" width="180" height="120" as="geometry" />
        </mxCell>
        <mxCell id="syg7E4NC2kROcxZFiv8_-12" value="鲁班&lt;br&gt;192.168.3.1" style="verticalAlign=top;align=left;spacingTop=8;spacingLeft=2;spacingRight=12;shape=cube;size=10;direction=south;fontStyle=4;html=1;whiteSpace=wrap;" vertex="1" parent="syg7E4NC2kROcxZFiv8_-14">
          <mxGeometry width="180" height="120" as="geometry" />
        </mxCell>
        <mxCell id="syg7E4NC2kROcxZFiv8_-13" value="" style="image;html=1;image=img/lib/clip_art/networking/Wireless_Router_N_128x128.png" vertex="1" parent="syg7E4NC2kROcxZFiv8_-14">
          <mxGeometry x="80" y="30" width="80" height="80" as="geometry" />
        </mxCell>
        <mxCell id="syg7E4NC2kROcxZFiv8_-15" value="" style="group" vertex="1" connectable="0" parent="1">
          <mxGeometry x="330" y="600" width="180" height="120" as="geometry" />
        </mxCell>
        <mxCell id="syg7E4NC2kROcxZFiv8_-16" value="哪吒&lt;br&gt;192.168.68.1" style="verticalAlign=top;align=left;spacingTop=8;spacingLeft=2;spacingRight=12;shape=cube;size=10;direction=south;fontStyle=4;html=1;whiteSpace=wrap;" vertex="1" parent="syg7E4NC2kROcxZFiv8_-15">
          <mxGeometry width="180" height="120" as="geometry" />
        </mxCell>
        <mxCell id="syg7E4NC2kROcxZFiv8_-17" value="" style="image;html=1;image=img/lib/clip_art/networking/Wireless_Router_N_128x128.png" vertex="1" parent="syg7E4NC2kROcxZFiv8_-15">
          <mxGeometry x="80" y="30" width="80" height="80" as="geometry" />
        </mxCell>
        <mxCell id="syg7E4NC2kROcxZFiv8_-22" style="edgeStyle=orthogonalEdgeStyle;rounded=0;orthogonalLoop=1;jettySize=auto;html=1;exitX=0;exitY=0;exitDx=120;exitDy=95;exitPerimeter=0;entryX=-0.004;entryY=0.515;entryDx=0;entryDy=0;entryPerimeter=0;" edge="1" parent="1" source="syg7E4NC2kROcxZFiv8_-12" target="syg7E4NC2kROcxZFiv8_-16">
          <mxGeometry relative="1" as="geometry" />
        </mxCell>
        <mxCell id="syg7E4NC2kROcxZFiv8_-29" value="" style="image;html=1;image=img/lib/clip_art/computers/Laptop_128x128.png" vertex="1" parent="1">
          <mxGeometry x="630" y="620" width="80" height="80" as="geometry" />
        </mxCell>
        <mxCell id="syg7E4NC2kROcxZFiv8_-30" value="" style="endArrow=classic;html=1;rounded=0;entryX=0;entryY=0;entryDx=54.99999999999999;entryDy=0;entryPerimeter=0;exitX=0;exitY=0.5;exitDx=0;exitDy=0;" edge="1" parent="1" source="syg7E4NC2kROcxZFiv8_-29" target="syg7E4NC2kROcxZFiv8_-16">
          <mxGeometry relative="1" as="geometry">
            <mxPoint x="420" y="450" as="sourcePoint" />
            <mxPoint x="580" y="450" as="targetPoint" />
          </mxGeometry>
        </mxCell>
        <mxCell id="syg7E4NC2kROcxZFiv8_-31" value="WiFi连接" style="edgeLabel;resizable=0;html=1;align=center;verticalAlign=middle;" connectable="0" vertex="1" parent="syg7E4NC2kROcxZFiv8_-30">
          <mxGeometry relative="1" as="geometry" />
        </mxCell>
        <mxCell id="syg7E4NC2kROcxZFiv8_-32" value="Source" style="edgeLabel;resizable=0;html=1;align=left;verticalAlign=bottom;" connectable="0" vertex="1" parent="syg7E4NC2kROcxZFiv8_-30">
          <mxGeometry x="-1" relative="1" as="geometry" />
        </mxCell>
        <mxCell id="syg7E4NC2kROcxZFiv8_-33" value="Target" style="edgeLabel;resizable=0;html=1;align=right;verticalAlign=bottom;" connectable="0" vertex="1" parent="syg7E4NC2kROcxZFiv8_-30">
          <mxGeometry x="1" relative="1" as="geometry" />
        </mxCell>
      </root>
    </mxGraphModel>
  </diagram>
</mxfile>
